<svg width="25" height="24" viewBox="0 0 25 24" fill="none" xmlns="http://www.w3.org/2000/svg">
<path d="M17.3491 2H7.34912C4.5877 2 2.34912 4.23858 2.34912 7V17C2.34912 19.7614 4.5877 22 7.34912 22H17.3491C20.1105 22 22.3491 19.7614 22.3491 17V7C22.3491 4.23858 20.1105 2 17.3491 2Z" stroke="#EAEAEA" stroke-width="2" stroke-linecap="round" stroke-linejoin="round"/>
<path d="M16.3491 11.3701C16.4725 12.2023 16.3304 13.0523 15.9429 13.7991C15.5554 14.5459 14.9423 15.1515 14.1908 15.5297C13.4392 15.908 12.5876 16.0397 11.7569 15.906C10.9263 15.7723 10.1589 15.3801 9.56397 14.7852C8.96905 14.1903 8.57687 13.4229 8.4432 12.5923C8.30954 11.7616 8.4412 10.91 8.81946 10.1584C9.19772 9.40691 9.80332 8.7938 10.5501 8.4063C11.2969 8.0188 12.1469 7.87665 12.9791 8.00006C13.8281 8.12594 14.614 8.52152 15.2208 9.12836C15.8277 9.73521 16.2232 10.5211 16.3491 11.3701Z" stroke="#EAEAEA" stroke-width="2" stroke-linecap="round" stroke-linejoin="round"/>
<path d="M17.8491 6.5H17.8591" stroke="#EAEAEA" stroke-width="2" stroke-linecap="round" stroke-linejoin="round"/>
</svg>
