<svg width="59" height="58" viewBox="0 0 59 58" fill="none" xmlns="http://www.w3.org/2000/svg">
<path d="M50.8633 11.1408C49.629 9.90593 48.1635 8.92631 46.5504 8.25795C44.9374 7.5896 43.2085 7.24559 41.4625 7.24559C39.7165 7.24559 37.9876 7.5896 36.3746 8.25795C34.7615 8.92631 33.296 9.90593 32.0617 11.1408L29.5 13.7025L26.9383 11.1408C24.4451 8.64758 21.0635 7.24688 17.5375 7.24688C14.0115 7.24688 10.6299 8.64758 8.13666 11.1408C5.6434 13.6341 4.24271 17.0157 4.24271 20.5417C4.24271 24.0677 5.6434 27.4492 8.13666 29.9425L10.6983 32.5042L29.5 51.3058L48.3017 32.5042L50.8633 29.9425C52.0982 28.7082 53.0778 27.2426 53.7462 25.6296C54.4146 24.0166 54.7586 22.2877 54.7586 20.5417C54.7586 18.7957 54.4146 17.0668 53.7462 15.4537C53.0778 13.8407 52.0982 12.3752 50.8633 11.1408V11.1408Z" stroke="#222222" stroke-width="2" stroke-linecap="round" stroke-linejoin="round"/>
</svg>
