<svg width="25" height="24" viewBox="0 0 25 24" fill="none" xmlns="http://www.w3.org/2000/svg">
<g clip-path="url(#clip0_25_228)">
<path d="M23.3491 3.00005C22.3915 3.67552 21.3312 4.19216 20.2091 4.53005C19.6069 3.83756 18.8065 3.34674 17.9162 3.12397C17.0259 2.90121 16.0886 2.95724 15.2312 3.2845C14.3738 3.61176 13.6376 4.19445 13.1221 4.95376C12.6066 5.71308 12.3368 6.61238 12.3491 7.53005V8.53005C10.5918 8.57561 8.8504 8.18586 7.28013 7.39549C5.70986 6.60513 4.35944 5.43868 3.34912 4.00005C3.34912 4.00005 -0.650879 13 8.34912 17C6.28965 18.398 3.83628 19.099 1.34912 19C10.3491 24 21.3491 19 21.3491 7.50005C21.3482 7.2215 21.3214 6.94364 21.2691 6.67005C22.2897 5.66354 23.0099 4.39276 23.3491 3.00005V3.00005Z" stroke="#EAEAEA" stroke-width="2" stroke-linecap="round" stroke-linejoin="round"/>
</g>
<defs>
<clipPath id="clip0_25_228">
<rect width="24" height="24" fill="white" transform="translate(0.349121)"/>
</clipPath>
</defs>
</svg>
