<svg width="230" height="90" viewBox="0 0 230 90" fill="none" xmlns="http://www.w3.org/2000/svg">
<path d="M103.752 53H93.024V27.44H103.356C106.164 27.44 108.276 28.076 109.692 29.348C111.108 30.62 111.816 32.3 111.816 34.388C111.816 35.732 111.48 36.896 110.808 37.88C110.16 38.864 109.26 39.596 108.108 40.076C109.38 40.508 110.388 41.24 111.132 42.272C111.876 43.28 112.248 44.468 112.248 45.836C112.248 48.092 111.516 49.856 110.052 51.128C108.588 52.376 106.488 53 103.752 53ZM103.716 42.056H97.308V49.04H103.68C106.464 49.04 107.856 47.876 107.856 45.548C107.856 44.444 107.496 43.592 106.776 42.992C106.056 42.368 105.036 42.056 103.716 42.056ZM103.392 31.4H97.308V38.06H103.392C106.08 38.06 107.424 36.956 107.424 34.748C107.424 33.692 107.088 32.876 106.416 32.3C105.744 31.7 104.736 31.4 103.392 31.4ZM126.719 34.172V38.168C126.383 38.12 126.059 38.096 125.747 38.096C122.531 38.096 120.923 39.824 120.923 43.28V53H116.639V34.316H120.599V36.908C121.655 35.06 123.491 34.136 126.107 34.136L126.719 34.172ZM141.882 45.08V34.316H146.166V53H142.206V50.588C141.774 51.404 141.066 52.088 140.082 52.64C139.122 53.168 137.934 53.432 136.518 53.432C134.31 53.432 132.606 52.772 131.406 51.452C130.23 50.108 129.642 48.32 129.642 46.088V34.316H133.926V45.512C133.926 48.344 135.138 49.76 137.562 49.76C138.906 49.76 139.962 49.364 140.73 48.572C141.498 47.756 141.882 46.592 141.882 45.08ZM157.746 53.432C155.178 53.432 153.246 52.832 151.95 51.632C150.654 50.432 149.946 48.896 149.826 47.024H153.966C154.014 47.888 154.386 48.584 155.082 49.112C155.778 49.64 156.75 49.904 157.998 49.904C159.102 49.904 159.954 49.712 160.554 49.328C161.154 48.944 161.454 48.428 161.454 47.78C161.454 47.06 161.082 46.532 160.338 46.196C159.618 45.836 158.73 45.572 157.674 45.404C156.618 45.236 155.562 45.02 154.506 44.756C153.45 44.468 152.55 43.916 151.806 43.1C151.086 42.284 150.726 41.168 150.726 39.752C150.726 38.12 151.398 36.74 152.742 35.612C154.11 34.46 155.91 33.884 158.142 33.884C159.414 33.884 160.53 34.088 161.49 34.496C162.474 34.88 163.23 35.396 163.758 36.044C164.31 36.692 164.718 37.352 164.982 38.024C165.27 38.696 165.438 39.38 165.486 40.076H161.382C161.31 39.332 160.986 38.696 160.41 38.168C159.858 37.64 159.066 37.376 158.034 37.376C157.002 37.376 156.21 37.58 155.658 37.988C155.106 38.372 154.83 38.912 154.83 39.608C154.83 40.256 155.19 40.748 155.91 41.084C156.654 41.42 157.554 41.672 158.61 41.84C159.666 42.008 160.722 42.248 161.778 42.56C162.834 42.848 163.722 43.412 164.442 44.252C165.186 45.092 165.558 46.208 165.558 47.6C165.558 49.28 164.874 50.672 163.506 51.776C162.162 52.88 160.242 53.432 157.746 53.432ZM173.692 26V36.332C174.82 34.7 176.632 33.884 179.128 33.884C181.336 33.884 183.04 34.556 184.24 35.9C185.464 37.244 186.076 39.032 186.076 41.264V53H181.792V41.804C181.792 40.484 181.48 39.452 180.856 38.708C180.256 37.94 179.332 37.556 178.084 37.556C176.716 37.556 175.636 37.964 174.844 38.78C174.076 39.596 173.692 40.736 173.692 42.2V53H169.408V26H173.692ZM193.26 31.184C192.468 31.184 191.82 30.944 191.316 30.464C190.812 29.96 190.56 29.324 190.56 28.556C190.56 27.764 190.812 27.116 191.316 26.612C191.82 26.108 192.468 25.856 193.26 25.856C194.028 25.856 194.664 26.108 195.168 26.612C195.672 27.116 195.924 27.764 195.924 28.556C195.924 29.324 195.672 29.96 195.168 30.464C194.664 30.944 194.028 31.184 193.26 31.184ZM191.1 53V34.316H195.384V53H191.1ZM201.313 34.316V32.336C201.313 30.224 201.853 28.64 202.933 27.584C204.013 26.528 205.489 26 207.361 26L208.801 26.108V29.888C208.657 29.84 208.393 29.816 208.009 29.816C207.145 29.816 206.521 30.032 206.137 30.464C205.777 30.872 205.597 31.58 205.597 32.588V34.316H208.909V37.736H205.597V53H201.313V37.736H198.325V34.316H201.313ZM214.067 60.488L217.235 52.856L209.711 34.316H214.283L219.359 47.852L224.507 34.316H228.971L218.315 60.488H214.067Z" fill="#222222"/>
<mask id="mask0_32_126" style="mask-type:luminance" maskUnits="userSpaceOnUse" x="19" y="11" width="52" height="68">
<path d="M19.2222 78.3503H70.7779V11.6495H19.2222V78.3503Z" fill="white"/>
</mask>
<g mask="url(#mask0_32_126)">
<path d="M69.9917 44.8269C70.4254 44.8269 70.7775 44.4753 70.7775 44.041V18.0771C70.7775 16.9182 70.0946 15.9259 69.1195 15.6796C67.1526 15.1828 64.0402 14.2327 60.1333 13.3784C59.8073 13.3076 59.4688 13.4445 59.2932 13.7283C50.141 28.5 38.0303 48.146 27.7055 64.8506C27.4927 65.1939 27.5788 65.6377 27.8995 65.8834L43.5662 77.865C44.4127 78.5123 45.5871 78.5123 46.4323 77.865L64.3148 64.1897C66.6037 62.4388 68.434 60.121 69.4253 57.416C69.838 56.2874 70.1593 55.1142 70.3841 53.9125C70.474 53.4342 70.092 52.9939 69.6056 52.9939H46.1332C45.521 52.9939 45.1439 52.3247 45.4611 51.8011L49.4523 45.2065C49.5942 44.9709 49.8495 44.8269 50.1238 44.8269H69.9911H69.9917Z" fill="#EAEAEA"/>
<path d="M20.8751 50.3415L44.2326 12.8558C44.5615 12.3269 44.1748 11.6327 43.5516 11.6499C34.1761 11.9194 24.7717 14.6965 20.8709 15.6816C19.9006 15.9268 19.2225 16.9238 19.2225 18.0774L19.4203 49.931C19.425 50.7193 20.4579 51.0108 20.8751 50.3415Z" fill="#222222"/>
</g>
</svg>
